<svg xmlns="http://www.w3.org/2000/svg" viewBox="0 0 38.6 20.58"><defs><style>.cls-1{font-size:12px;}.cls-1,.cls-4,.cls-5{fill:#3b5070;}.cls-1,.cls-5{font-family:UnicaOne-Regular, Unica One;}.cls-2,.cls-3{fill:none;stroke:#3b5070;stroke-miterlimit:10;}.cls-3{stroke-linecap:round;stroke-width:0.75px;}.cls-5{font-size:6px;}.cls-6{letter-spacing:-0.06em;}</style></defs><g id="Layer_2" data-name="Layer 2"><g id="Layer_1-2" data-name="Layer 1"><text class="cls-1" transform="translate(18.49 9.9)"><tspan xml:space="preserve"> cle</tspan></text><circle class="cls-2" cx="18.45" cy="8.87" r="0.96"/><line class="cls-3" x1="18.45" y1="11.96" x2="18.45" y2="20.2"/><path class="cls-2" d="M17.38,14.62v-3a.83.83,0,0,1,.84-.84h.47a.84.84,0,0,1,.84.84v3"/><line class="cls-3" x1="16.41" y1="17.99" x2="17.45" y2="17.99"/><line class="cls-3" x1="19.41" y1="14.53" x2="20.39" y2="14.53"/><text class="cls-1" transform="translate(0 9.9)">Bic</text><path class="cls-4" d="M18.89,7.11h-.84V5.73c-1.09-.12-1.64-.67-1.64-1.65V2h.84V4.08q0,1,1.2,1t1.2-1V2h.84V4.08c0,1-.53,1.53-1.6,1.65Z"/><text/><text class="cls-5" transform="translate(22.14 16.08)">N<tspan class="cls-6" x="3.34" y="0">A</tspan><tspan x="5.86" y="0">TION</tspan></text></g></g></svg>